<svg width="111" height="139" viewBox="0 0 111 139" fill="none" xmlns="http://www.w3.org/2000/svg">
<path fill-rule="evenodd" clip-rule="evenodd" d="M55.6733 33.36C59.9869 33.3608 64.2191 34.5375 67.9162 36.764C71.6132 38.9904 74.6359 42.1828 76.6602 45.9988C78.6845 49.8149 79.6341 54.1108 79.4073 58.4263C79.1806 62.7417 77.7859 66.914 75.3729 70.4961C75.2884 70.7071 75.1565 70.8958 74.9873 71.0474C72.7861 74.12 69.8862 76.6233 66.5275 78.3501C63.1688 80.0769 59.4479 80.9775 55.6727 80.9775C51.8975 80.9775 48.1766 80.0769 44.8179 78.3501C41.4592 76.6233 38.5593 74.12 36.3581 71.0474C36.1896 70.8954 36.0581 70.7069 35.9737 70.4961C33.5602 66.9141 32.1652 62.7418 31.9382 58.4261C31.7112 54.1105 32.6608 49.8144 34.6852 45.9982C36.7096 42.182 39.7324 38.9896 43.4297 36.7632C47.1271 34.5369 51.3594 33.3604 55.6733 33.36ZM16.0264 44.5221C17.4335 44.5229 18.8096 44.9358 19.9855 45.71C21.1613 46.4843 22.0855 47.5861 22.6442 48.8798C23.203 50.1735 23.372 51.6026 23.1303 52.9913C22.8887 54.38 22.247 55.6676 21.2843 56.6956C23.7165 57.585 25.886 59.0734 27.5928 61.0237C29.2997 62.974 30.489 65.3235 31.0511 67.8554C31.0962 68.0604 31.1006 68.2722 31.0639 68.4789C31.0272 68.6856 30.9503 68.883 30.8374 69.0598C30.7246 69.2367 30.5781 69.3895 30.4062 69.5096C30.2344 69.6297 30.0406 69.7148 29.836 69.7598C29.7235 69.7843 29.6087 69.7968 29.4936 69.7973V69.8043H2.55686C2.30497 69.8023 2.05708 69.741 1.83317 69.6254C1.60926 69.5098 1.41559 69.3431 1.26779 69.1388C1.11998 68.9344 1.02217 68.6982 0.982243 68.449C0.942313 68.1999 0.96138 67.9448 1.03791 67.7044C1.61942 65.2037 2.81383 62.8877 4.51317 60.9656C6.21251 59.0435 8.36321 57.5759 10.7709 56.6956C9.80866 55.6674 9.16746 54.3798 8.92613 52.9913C8.6848 51.6028 8.85388 50.174 9.41256 48.8805C9.97123 47.587 10.8951 46.4853 12.0706 45.711C13.2461 44.9366 14.6219 44.5234 16.0288 44.5221H16.0264ZM18.8657 48.9081C18.399 48.4406 17.8244 48.0956 17.1929 47.9037C16.5614 47.7117 15.8923 47.6788 15.245 47.8077C14.5977 47.9367 13.9922 48.2235 13.482 48.6429C12.9718 49.0623 12.5727 49.6012 12.32 50.212C12.0674 50.8228 11.969 51.4866 12.0335 52.1446C12.0981 52.8026 12.3236 53.4344 12.6901 53.9842C13.0566 54.5341 13.5528 54.9849 14.1348 55.2967C14.7167 55.6085 15.3664 55.7718 16.0264 55.772C16.8201 55.7717 17.5959 55.5358 18.2558 55.094C18.9156 54.6522 19.43 54.0243 19.7338 53.2898C20.0377 52.5553 20.1174 51.747 19.9628 50.9671C19.8083 50.1872 19.4265 49.4707 18.8657 48.9081ZM23.6504 61.6586C21.4894 59.919 18.7986 58.9738 16.0264 58.9804C13.5989 58.9806 11.2267 59.706 9.21281 61.0638C7.19894 62.4216 5.63496 64.3501 4.72077 66.6029H27.3321C26.5448 64.6691 25.2775 62.9688 23.6504 61.6633V61.6586ZM55.6733 3.31372C57.0806 3.31395 58.4571 3.72656 59.6333 4.50072C60.8094 5.27488 61.7339 6.37677 62.2927 7.67069C62.8516 8.9646 63.0204 10.394 62.7785 11.7829C62.5366 13.1717 61.8944 14.4594 60.9312 15.4872C63.3624 16.3782 65.531 17.8671 67.2376 19.8172C68.9443 21.7672 70.1342 24.1158 70.698 26.647C70.7431 26.852 70.7474 27.0639 70.7108 27.2705C70.6741 27.4772 70.5972 27.6746 70.4843 27.8514C70.3715 28.0283 70.2249 28.1812 70.0531 28.3013C69.8813 28.4214 69.6875 28.5064 69.4828 28.5514C69.3702 28.5774 69.2549 28.5904 69.1393 28.5901V28.5959H42.2049C41.9945 28.5961 41.7862 28.5547 41.5918 28.4742C41.3974 28.3937 41.2207 28.2756 41.0718 28.1267C40.923 27.9778 40.8048 27.801 40.7242 27.6063C40.6436 27.4117 40.602 27.203 40.6018 26.9923C40.6018 26.8244 40.6286 26.6577 40.6813 26.4983C41.2633 23.998 42.4576 21.6821 44.1564 19.7598C45.8552 17.8374 48.005 16.3691 50.4119 15.4872C49.4497 14.459 48.8085 13.1715 48.5672 11.783C48.3258 10.3945 48.4949 8.96559 49.0536 7.6721C49.6123 6.37861 50.5362 5.27693 51.7116 4.50258C52.8871 3.72824 54.2629 3.31501 55.6698 3.31372H55.6733ZM58.5125 7.69968C57.8575 7.04015 56.9944 6.6286 56.0704 6.5352C55.1463 6.4418 54.2186 6.67232 53.4452 7.18747C52.6718 7.70262 52.1007 8.47052 51.8292 9.36028C51.5577 10.25 51.6027 11.2066 51.9563 12.0669C52.31 12.9271 52.9506 13.6379 53.7688 14.0781C54.587 14.5182 55.5323 14.6604 56.4435 14.4805C57.3547 14.3006 58.1754 13.8097 58.7658 13.0915C59.3561 12.3732 59.6796 11.4721 59.681 10.5417C59.6825 10.0143 59.5801 9.4917 59.3796 9.004C59.1791 8.51629 58.8844 8.07304 58.5125 7.69968ZM63.3031 20.4479C61.8197 19.2597 60.08 18.4347 58.2224 18.0385C56.3648 17.6423 54.4406 17.6858 52.6027 18.1655C50.7648 18.6452 49.0641 19.548 47.6357 20.8019C46.2073 22.0559 45.0907 23.6264 44.3746 25.3887H66.9789C66.1917 23.4548 64.9249 21.7542 63.2984 20.4479H63.3031ZM55.6779 82.6028C57.0857 82.6036 58.4625 83.0167 59.6389 83.7915C60.8152 84.5662 61.7397 85.6686 62.2985 86.9631C62.8573 88.2575 63.0261 89.6874 62.7839 91.0767C62.5418 92.466 61.8994 93.754 60.9358 94.7822C63.367 95.6702 65.5359 97.1571 67.2426 99.1058C68.9493 101.054 70.1388 103.402 70.7015 105.933C70.7923 106.347 70.7153 106.78 70.4875 107.137C70.2596 107.495 69.8996 107.747 69.4864 107.838C69.3734 107.862 69.2583 107.875 69.1428 107.877H42.2049C41.9945 107.877 41.7862 107.836 41.5918 107.755C41.3974 107.675 41.2207 107.557 41.0718 107.408C40.923 107.259 40.8048 107.082 40.7242 106.887C40.6436 106.693 40.602 106.484 40.6018 106.273C40.6017 106.105 40.6285 105.938 40.6813 105.778C41.2622 103.278 42.4563 100.963 44.1553 99.0418C45.8543 97.1206 48.0047 95.6541 50.4119 94.7751C49.4513 93.7464 48.8115 92.459 48.5711 91.071C48.3306 89.6831 48.5 88.255 49.0584 86.9621C49.6168 85.6693 50.5399 84.5679 51.7144 83.7933C52.8889 83.0187 54.2636 82.6045 55.6698 82.6017L55.6779 82.6028ZM58.5172 86.9888C57.8618 86.3284 56.9981 85.9162 56.0732 85.8224C55.1484 85.7286 54.2197 85.959 53.4455 86.4744C52.6713 86.9897 52.0994 87.7582 51.8274 88.6486C51.5554 89.5391 51.6001 90.4965 51.9538 91.3577C52.3076 92.2188 52.9485 92.9304 53.7674 93.3712C54.5862 93.8119 55.5323 93.9546 56.4444 93.7747C57.3564 93.5949 58.178 93.1037 58.769 92.385C59.3601 91.6663 59.684 90.7644 59.6856 89.8332C59.6871 89.3054 59.5846 88.7825 59.3841 88.2944C59.1836 87.8064 58.889 87.3627 58.5172 86.9888ZM63.3077 99.7393C61.8244 98.551 60.0846 97.7258 58.2269 97.3295C56.3692 96.9333 54.4448 96.9768 52.6069 97.4566C50.7689 97.9365 49.0681 98.8395 47.6398 100.094C46.2115 101.348 45.095 102.919 44.3793 104.681H66.9789C66.1918 102.747 64.925 101.046 63.2984 99.7393H63.3077ZM94.979 44.5221C96.3856 44.5239 97.761 44.9375 98.9362 45.7119C100.111 46.4863 101.035 47.5879 101.594 48.8812C102.152 50.1745 102.321 51.6031 102.08 52.9914C101.839 54.3797 101.199 55.6672 100.237 56.6956C102.668 57.5861 104.837 59.075 106.543 61.0251C108.249 62.9753 109.439 65.3241 110.001 67.8554C110.047 68.0602 110.052 68.272 110.016 68.4788C109.98 68.6855 109.904 68.8832 109.791 69.0603C109.679 69.2375 109.533 69.3908 109.361 69.5114C109.19 69.632 108.997 69.7176 108.792 69.7633C108.677 69.7883 108.559 69.8009 108.442 69.8008V69.8078H81.5094C81.2571 69.807 81.0085 69.7466 80.7839 69.6313C80.5593 69.5161 80.3651 69.3494 80.2171 69.1447C80.069 68.94 79.9713 68.7032 79.9319 68.4535C79.8926 68.2038 79.9126 67.9483 79.9905 67.7079C80.5717 65.2075 81.7658 62.8916 83.4647 60.9695C85.1636 59.0474 87.3139 57.5797 89.7211 56.6991C88.7589 55.6709 88.1177 54.3833 87.8763 52.9948C87.635 51.6064 87.8041 50.1775 88.3628 48.884C88.9214 47.5905 89.8453 46.4888 91.0208 45.7145C92.1963 44.9401 93.5721 44.5269 94.979 44.5256V44.5221ZM97.8159 48.9081C97.1594 48.2521 96.2963 47.8443 95.3734 47.7543C94.4506 47.6642 93.5251 47.8975 92.7546 48.4142C91.9841 48.9309 91.4163 49.6993 91.1478 50.5884C90.8792 51.4774 90.9266 52.4323 91.2819 53.2902C91.6372 54.1482 92.2783 54.8563 93.0962 55.2939C93.9141 55.7315 94.858 55.8716 95.7674 55.6903C96.6768 55.5089 97.4953 55.0174 98.0836 54.2994C98.6718 53.5814 98.9934 52.6813 98.9937 51.7524C98.9942 51.224 98.8904 50.7006 98.6882 50.2124C98.4861 49.7243 98.1897 49.281 97.8159 48.9081ZM102.606 61.6586C101.123 60.4702 99.3836 59.6449 97.526 59.2485C95.6684 58.852 93.7441 58.8953 91.9062 59.375C90.0683 59.8546 88.3674 60.7573 86.939 62.0113C85.5105 63.2653 84.3939 64.8359 83.678 66.5982H106.285C105.497 64.6646 104.23 62.9644 102.603 61.6586H102.606ZM73.0126 19.6847C82.0101 23.88 89.201 31.1777 93.2719 40.245C93.3515 40.4239 93.4656 40.5854 93.6075 40.7202C93.7494 40.8549 93.9164 40.9604 94.099 41.0305C94.2816 41.1006 94.4762 41.134 94.6717 41.1288C94.8672 41.1235 95.0597 41.0798 95.2384 41C95.417 40.9202 95.5781 40.806 95.7127 40.6638C95.8472 40.5216 95.9524 40.3543 96.0224 40.1714C96.0924 39.9884 96.1257 39.7935 96.1205 39.5976C96.1153 39.4018 96.0716 39.2089 95.992 39.03C91.6284 29.3013 83.9147 21.4715 74.2617 16.9726C74.0835 16.887 73.89 16.8377 73.6926 16.8276C73.4952 16.8176 73.2978 16.847 73.1118 16.914C72.9258 16.9811 72.755 17.0846 72.6093 17.2184C72.4637 17.3523 72.346 17.5138 72.2632 17.6936C72.1804 17.8734 72.1341 18.0679 72.127 18.2658C72.1199 18.4637 72.1522 18.661 72.2219 18.8463C72.2917 19.0316 72.3975 19.2011 72.5332 19.345C72.669 19.489 72.8319 19.6044 73.0126 19.6847ZM93.3081 73.9058C91.0396 79.0085 87.7594 83.5959 83.6668 87.3895C79.5741 91.1831 74.7544 94.1036 69.5004 95.9737C69.1296 96.1076 68.8267 96.383 68.658 96.7398C68.4892 97.0966 68.4681 97.5058 68.5995 97.878C68.7308 98.2503 69.0038 98.5554 69.3589 98.7267C69.714 98.898 70.1223 98.9216 70.4947 98.7924C76.128 96.7826 81.2955 93.6484 85.6844 89.5796C90.0733 85.5107 93.5923 80.5919 96.0282 75.1208C96.189 74.7595 96.2 74.3489 96.0586 73.9795C95.9887 73.7965 95.8834 73.6292 95.7489 73.487C95.6143 73.3448 95.4532 73.2306 95.2746 73.1508C94.9139 72.9897 94.504 72.9787 94.1353 73.1203C93.7665 73.2619 93.4689 73.5445 93.3081 73.9058ZM40.9816 95.6542C35.7746 93.6531 31.0261 90.6162 27.0225 86.7267C23.0189 82.8372 19.8432 78.1757 17.6867 73.0232C17.6116 72.8421 17.5015 72.6775 17.3628 72.539C17.2242 72.4005 17.0596 72.2906 16.8786 72.2158C16.6976 72.141 16.5036 72.1026 16.3078 72.1028C16.1119 72.1031 15.9181 72.142 15.7372 72.2173C15.5564 72.2927 15.3922 72.4029 15.2539 72.5418C15.1156 72.6807 15.0059 72.8456 14.9312 73.0269C14.8565 73.2083 14.8182 73.4026 14.8185 73.5988C14.8188 73.795 14.8576 73.9892 14.9328 74.1704C17.2466 79.6971 20.6532 84.6974 24.9475 88.87C29.2417 93.0426 34.3346 96.3012 39.9195 98.4494C40.2868 98.5788 40.6901 98.5593 41.0433 98.395C41.3965 98.2308 41.6717 97.9349 41.8102 97.5703C41.9487 97.2057 41.9396 96.8014 41.7848 96.4434C41.63 96.0855 41.3418 95.8023 40.9816 95.6542ZM17.8865 40.7343C21.9107 31.4579 29.1836 23.977 38.3339 19.7023C38.5117 19.62 38.6715 19.5035 38.8043 19.3594C38.9371 19.2153 39.0403 19.0463 39.108 18.8623C39.1756 18.6782 39.2064 18.4826 39.1986 18.2866C39.1908 18.0906 39.1445 17.8981 39.0624 17.72C38.9803 17.5419 38.864 17.3818 38.7202 17.2487C38.5763 17.1156 38.4077 17.0123 38.2239 16.9445C38.0402 16.8767 37.8449 16.8459 37.6493 16.8537C37.4536 16.8616 37.2615 16.9079 37.0837 16.9901C27.2681 21.5723 19.4669 29.5965 15.1536 39.5474C15.0036 39.9093 15.0018 40.3158 15.1487 40.679C15.2955 41.0422 15.5791 41.3329 15.9383 41.4883C16.2974 41.6436 16.7031 41.6511 17.0677 41.5092C17.4323 41.3672 17.7264 41.0871 17.8865 40.7296V40.7343ZM70.8067 71.4278H67.3622C67.012 72.2037 66.622 72.9608 66.1937 73.6963C65.7431 74.4699 65.2419 75.2129 64.6935 75.9203C66.7979 74.901 68.7166 73.5352 70.3697 71.8796C70.5181 71.7298 70.6653 71.5788 70.8102 71.4231L70.8067 71.4278ZM64.045 71.4278H57.1677V77.8013C59.6295 77.2079 61.8776 75.1723 63.6244 72.1898C63.7693 71.9417 63.9087 71.6877 64.045 71.4278ZM54.1777 71.4278H47.3004C47.4382 71.6877 47.5785 71.9417 47.7233 72.1898C49.469 75.1723 51.7182 77.2079 54.1789 77.8013L54.1777 71.4278ZM43.9856 71.4278H40.5446C40.6883 71.5835 40.8355 71.7345 40.9851 71.8843C42.6366 73.5406 44.5547 74.9066 46.6589 75.925C46.1105 75.2175 45.6093 74.4746 45.1587 73.701C44.7295 72.966 44.3394 72.2088 43.9902 71.4325L43.9856 71.4278ZM38.2077 68.4348H42.8347C41.8291 65.2704 41.2633 61.9823 41.1533 58.6632H34.9478C35.1947 62.1437 36.3161 65.505 38.2077 68.4348ZM45.9847 68.4348H54.1847V58.6632H44.1375C44.2482 61.9957 44.8693 65.2913 45.9789 68.4348H45.9847ZM57.1735 68.4348H65.3735C66.4842 65.2916 67.1053 61.9958 67.2149 58.6632H57.1677V68.4348H57.1735ZM68.5236 68.4348H73.1435C75.0309 65.5036 76.1493 62.1426 76.3952 58.6632H70.1991C70.0902 61.9824 69.5244 65.2706 68.5177 68.4348H68.5236ZM73.6226 46.663H68.7619C69.6167 49.5912 70.1015 52.6152 70.2049 55.6643H76.4046C76.1817 52.4893 75.2296 49.4087 73.6226 46.663ZM65.6411 46.663H57.1677V55.6643H67.2091C67.1029 52.6054 66.5732 49.576 65.6352 46.663H65.6411ZM54.1906 46.663H45.7125C44.773 49.5757 44.2429 52.6052 44.1375 55.6643H54.1789V46.663H54.1906ZM42.6021 46.663H37.7287C36.123 49.4092 35.1714 52.4896 34.9478 55.6643H41.1475C41.2509 52.6152 41.7357 49.5912 42.5905 46.663H42.6021ZM39.8645 43.6676H43.6526C44.0839 42.6224 44.5859 41.608 45.1551 40.6313C45.6057 39.8576 46.1069 39.1147 46.6554 38.4073C44.5506 39.4236 42.6323 40.7889 40.9816 42.4456C40.5901 42.8377 40.2127 43.2474 39.8529 43.67L39.8645 43.6676ZM46.9241 43.6676H54.1906V36.5274C51.7299 37.122 49.4806 39.1564 47.735 42.1459C47.4499 42.6317 47.18 43.1432 46.9241 43.6746V43.6676ZM57.1794 43.6676H64.447C64.1899 43.1362 63.9188 42.6247 63.6361 42.1389C61.8834 39.1552 59.6412 37.1209 57.1794 36.5204V43.6606V43.6676ZM67.708 43.6676H71.5066C71.1467 43.2451 70.7704 42.8354 70.379 42.4432C68.7268 40.7873 66.8079 39.4221 64.7028 38.4049C65.2513 39.1123 65.7525 39.8553 66.2031 40.6289C66.7693 41.6074 67.2682 42.6234 67.6963 43.67L67.708 43.6676Z" fill="#FAFAFA"/>
</svg>
