<svg width="146" height="183" viewBox="0 0 146 183" fill="none" xmlns="http://www.w3.org/2000/svg">
<path d="M138.158 32.4539H134.594V23.1609C134.594 22.5921 134.368 22.0467 133.967 21.6445C133.566 21.2423 133.022 21.0164 132.455 21.0164H81.5547C79.8946 21.0161 78.2572 21.4036 76.7723 22.1481C75.2875 22.8925 73.9959 23.9735 73 25.3054C72.0041 23.9735 70.7125 22.8925 69.2277 22.1481C67.7428 21.4036 66.1054 21.0161 64.4453 21.0164H13.5449C12.9777 21.0164 12.4337 21.2423 12.0327 21.6445C11.6316 22.0467 11.4062 22.5921 11.4062 23.1609V32.4539H7.8418C5.76295 32.4569 3.77011 33.2863 2.30014 34.7603C0.830173 36.2343 0.0030172 38.2326 0 40.3171L0 117.52C0.0030172 119.605 0.830173 121.603 2.30014 123.077C3.77011 124.551 5.76295 125.381 7.8418 125.384H138.158C140.237 125.381 142.23 124.551 143.7 123.077C145.17 121.603 145.997 119.605 146 117.52V40.3171C145.997 38.2326 145.17 36.2343 143.7 34.7603C142.23 33.2863 140.237 32.4569 138.158 32.4539ZM81.5547 25.3054H130.316V109.657H75.1387V31.739C75.1402 30.0332 75.8166 28.3977 77.0195 27.1914C78.2225 25.9852 79.8535 25.3069 81.5547 25.3054ZM15.6836 25.3054H64.4453C66.1465 25.3069 67.7775 25.9852 68.9805 27.1914C70.1834 28.3977 70.8598 30.0332 70.8613 31.739V109.657H15.6836V25.3054ZM4.27734 117.52V40.3171C4.27885 39.3697 4.65488 38.4614 5.32301 37.7915C5.99115 37.1215 6.89691 36.7444 7.8418 36.7429H11.4062V111.802C11.4062 112.37 11.6316 112.916 12.0327 113.318C12.4337 113.72 12.9777 113.946 13.5449 113.946H70.8613V121.094H7.8418C6.89691 121.093 5.99115 120.716 5.32301 120.046C4.65488 119.376 4.27885 118.468 4.27734 117.52ZM141.723 117.52C141.721 118.468 141.345 119.376 140.677 120.046C140.009 120.716 139.103 121.093 138.158 121.094H75.1387V113.946H132.455C133.022 113.946 133.566 113.72 133.967 113.318C134.368 112.916 134.594 112.37 134.594 111.802V36.7429H138.158C139.103 36.7444 140.009 37.1215 140.677 37.7915C141.345 38.4614 141.721 39.3697 141.723 40.3171V117.52Z" fill="white"/>
<path d="M60.3818 98.2195H37.5693C37.0021 98.2195 36.4581 98.4454 36.0571 98.8476C35.656 99.2498 35.4307 99.7952 35.4307 100.364C35.4307 100.933 35.656 101.478 36.0571 101.88C36.4581 102.283 37.0021 102.509 37.5693 102.509H60.3818C60.949 102.509 61.493 102.283 61.8941 101.88C62.2952 101.478 62.5205 100.933 62.5205 100.364C62.5205 99.7952 62.2952 99.2498 61.8941 98.8476C61.493 98.4454 60.949 98.2195 60.3818 98.2195Z" fill="white"/>
<path d="M29.0146 98.2195H26.1631C25.5959 98.2195 25.0519 98.4454 24.6508 98.8476C24.2497 99.2498 24.0244 99.7952 24.0244 100.364C24.0244 100.933 24.2497 101.478 24.6508 101.88C25.0519 102.283 25.5959 102.509 26.1631 102.509H29.0146C29.5819 102.509 30.1258 102.283 30.5269 101.88C30.928 101.478 31.1533 100.933 31.1533 100.364C31.1533 99.7952 30.928 99.2498 30.5269 98.8476C30.1258 98.4454 29.5819 98.2195 29.0146 98.2195Z" fill="white"/>
<path d="M58.9561 76.7341H27.5889C25.8879 76.7364 24.2573 77.415 23.0546 78.621C21.8518 79.827 21.1751 81.4621 21.1729 83.1677V86.0271C21.1744 87.7329 21.8508 89.3685 23.0537 90.5747C24.2566 91.7809 25.8877 92.4592 27.5889 92.4607H58.9561C60.6572 92.4592 62.2883 91.7809 63.4912 90.5747C64.6941 89.3685 65.3706 87.7329 65.3721 86.0271V83.1677C65.3698 81.4621 64.6931 79.827 63.4904 78.621C62.2876 77.415 60.657 76.7364 58.9561 76.7341ZM61.0947 86.0271C61.0947 86.5959 60.8694 87.1413 60.4683 87.5435C60.0672 87.9457 59.5233 88.1716 58.9561 88.1716H27.5889C27.0217 88.1716 26.4777 87.9457 26.0766 87.5435C25.6755 87.1413 25.4502 86.5959 25.4502 86.0271V83.1677C25.4509 82.5992 25.6765 82.0542 26.0774 81.6522C26.4783 81.2501 27.0219 81.0239 27.5889 81.0232H58.9561C59.523 81.0239 60.0666 81.2501 60.4675 81.6522C60.8684 82.0542 61.094 82.5992 61.0947 83.1677V86.0271Z" fill="white"/>
<path d="M87.0439 102.509H118.411C120.112 102.507 121.743 101.829 122.946 100.623C124.149 99.4163 124.826 97.7808 124.827 96.0749V64.6218C124.826 62.916 124.149 61.2805 122.946 60.0743C121.743 58.8681 120.112 58.1897 118.411 58.1882H87.0439C85.3428 58.1897 83.7117 58.8681 82.5088 60.0743C81.3059 61.2805 80.6294 62.916 80.6279 64.6218V96.0749C80.6294 97.7808 81.3059 99.4163 82.5088 100.623C83.7117 101.829 85.3428 102.507 87.0439 102.509ZM118.411 98.2195H87.0439C86.4767 98.2195 85.9328 97.9935 85.5317 97.5914C85.1306 97.1892 84.9053 96.6437 84.9053 96.0749V73.9148H120.55V96.0749C120.55 96.6437 120.324 97.1892 119.923 97.5914C119.522 97.9935 118.978 98.2195 118.411 98.2195ZM87.0439 62.4773H118.411C118.978 62.4773 119.522 62.7032 119.923 63.1054C120.324 63.5076 120.55 64.0531 120.55 64.6218V69.6257H84.9053V64.6218C84.9053 64.0531 85.1306 63.5076 85.5317 63.1054C85.9328 62.7032 86.4767 62.4773 87.0439 62.4773Z" fill="white"/>
<path d="M114.134 89.6414H91.3213C90.7541 89.6414 90.2101 89.8673 89.809 90.2695C89.4079 90.6716 89.1826 91.2171 89.1826 91.7859C89.1826 92.3547 89.4079 92.9001 89.809 93.3023C90.2101 93.7045 90.7541 93.9304 91.3213 93.9304H114.134C114.701 93.9304 115.245 93.7045 115.646 93.3023C116.047 92.9001 116.272 92.3547 116.272 91.7859C116.272 91.2171 116.047 90.6716 115.646 90.2695C115.245 89.8673 114.701 89.6414 114.134 89.6414Z" fill="white"/>
<path d="M114.134 78.2039H91.3213C90.7541 78.2039 90.2101 78.4298 89.809 78.832C89.4079 79.2341 89.1826 79.7796 89.1826 80.3484C89.1826 80.9172 89.4079 81.4626 89.809 81.8648C90.2101 82.267 90.7541 82.4929 91.3213 82.4929H114.134C114.701 82.4929 115.245 82.267 115.646 81.8648C116.047 81.4626 116.272 80.9172 116.272 80.3484C116.272 79.7796 116.047 79.2341 115.646 78.832C115.245 78.4298 114.701 78.2039 114.134 78.2039Z" fill="white"/>
<path d="M87.0439 51.0398H92.7471C94.4482 51.0383 96.0793 50.36 97.2822 49.1538C98.4851 47.9476 99.1616 46.312 99.1631 44.6062V38.8875C99.1616 37.1816 98.4851 35.5461 97.2822 34.3399C96.0793 33.1337 94.4482 32.4554 92.7471 32.4539H87.0439C85.3428 32.4554 83.7117 33.1337 82.5088 34.3399C81.3059 35.5461 80.6294 37.1816 80.6279 38.8875V44.6062C80.6294 46.312 81.3059 47.9476 82.5088 49.1538C83.7117 50.36 85.3428 51.0383 87.0439 51.0398ZM84.9053 38.8875C84.9053 38.3187 85.1306 37.7732 85.5317 37.371C85.9328 36.9689 86.4767 36.7429 87.0439 36.7429H92.7471C93.3143 36.7429 93.8583 36.9689 94.2593 37.371C94.6604 37.7732 94.8857 38.3187 94.8857 38.8875V44.6062C94.8857 45.175 94.6604 45.7204 94.2593 46.1226C93.8583 46.5248 93.3143 46.7507 92.7471 46.7507H87.0439C86.4767 46.7507 85.9328 46.5248 85.5317 46.1226C85.1306 45.7204 84.9053 45.175 84.9053 44.6062V38.8875Z" fill="white"/>
<path d="M112.708 51.0398H118.411C120.112 51.0383 121.743 50.36 122.946 49.1538C124.149 47.9476 124.826 46.312 124.827 44.6062V38.8875C124.826 37.1816 124.149 35.5461 122.946 34.3399C121.743 33.1337 120.112 32.4554 118.411 32.4539H112.708C111.007 32.4554 109.376 33.1337 108.173 34.3399C106.97 35.5461 106.294 37.1816 106.292 38.8875V44.6062C106.294 46.312 106.97 47.9476 108.173 49.1538C109.376 50.36 111.007 51.0383 112.708 51.0398ZM110.569 38.8875C110.569 38.3187 110.795 37.7732 111.196 37.371C111.597 36.9689 112.141 36.7429 112.708 36.7429H118.411C118.978 36.7429 119.522 36.9689 119.923 37.371C120.324 37.7732 120.55 38.3187 120.55 38.8875V44.6062C120.55 45.175 120.324 45.7204 119.923 46.1226C119.522 46.5248 118.978 46.7507 118.411 46.7507H112.708C112.141 46.7507 111.597 46.5248 111.196 46.1226C110.795 45.7204 110.569 45.175 110.569 44.6062V38.8875Z" fill="white"/>
<path d="M43.2725 45.321C44.5414 45.321 45.7819 44.9437 46.837 44.2368C47.8921 43.5299 48.7145 42.5251 49.2001 41.3495C49.6857 40.1739 49.8128 38.8803 49.5652 37.6323C49.3176 36.3843 48.7066 35.238 47.8093 34.3382C46.912 33.4385 45.7687 32.8257 44.5242 32.5775C43.2796 32.3292 41.9895 32.4566 40.8172 32.9436C39.6448 33.4305 38.6427 34.2551 37.9377 35.3131C37.2327 36.3711 36.8564 37.615 36.8564 38.8875C36.858 40.5933 37.5344 42.2288 38.7373 43.435C39.9402 44.6412 41.5713 45.3195 43.2725 45.321ZM43.2725 36.7429C43.6955 36.7429 44.1089 36.8687 44.4606 37.1043C44.8123 37.34 45.0865 37.6749 45.2483 38.0668C45.4102 38.4586 45.4526 38.8898 45.37 39.3058C45.2875 39.7218 45.0838 40.1039 44.7847 40.4039C44.4856 40.7038 44.1046 40.908 43.6897 40.9908C43.2748 41.0735 42.8448 41.0311 42.454 40.8687C42.0632 40.7064 41.7292 40.4316 41.4942 40.0789C41.2592 39.7262 41.1338 39.3116 41.1338 38.8875C41.1338 38.3187 41.3591 37.7732 41.7602 37.371C42.1613 36.9689 42.7052 36.7429 43.2725 36.7429Z" fill="white"/>
<path d="M26.6988 69.5857H59.8453C60.8853 69.5869 61.9044 69.2934 62.7852 68.7389C63.666 68.1845 64.3726 67.3918 64.8236 66.4521C65.2745 65.5124 65.4515 64.4641 65.334 63.428C65.2166 62.3918 64.8095 61.4101 64.1597 60.5959L53.2069 46.8709C52.9966 46.6074 52.7274 46.3973 52.4209 46.2578C52.1145 46.1184 51.7795 46.0534 51.4433 46.0681C51.1071 46.0829 50.7791 46.177 50.486 46.3428C50.1929 46.5086 49.9429 46.7415 49.7565 47.0224L43.4574 56.4898L36.7562 46.9709C36.5651 46.6984 36.3133 46.4743 36.0208 46.3164C35.7282 46.1584 35.403 46.071 35.071 46.061C34.7389 46.051 34.409 46.1188 34.1076 46.2588C33.8062 46.3989 33.5414 46.6075 33.3343 46.868L22.3815 60.593C21.7319 61.407 21.3248 62.3885 21.2073 63.4244C21.0897 64.4603 21.2664 65.5084 21.717 66.448C22.1676 67.3875 22.8738 68.1803 23.7542 68.7349C24.6346 69.2896 25.6533 69.5835 26.693 69.5829L26.6988 69.5857ZM25.7292 63.2751L34.9027 51.7747L40.9138 60.3156L40.315 61.2164C40.1555 61.4506 40.044 61.7142 39.9868 61.992C39.9296 62.2697 39.9279 62.5561 39.9819 62.8345C40.0358 63.1129 40.1443 63.3778 40.301 63.6139C40.4578 63.8499 40.6596 64.0525 40.895 64.2098C41.1303 64.3671 41.3944 64.4761 41.672 64.5304C41.9496 64.5846 42.2352 64.5832 42.5122 64.526C42.7893 64.4689 43.0523 64.3572 43.2859 64.1974C43.5196 64.0377 43.7194 63.833 43.8737 63.5954L51.6927 51.8376L60.8177 63.2751C60.9639 63.4581 61.0556 63.6788 61.0821 63.9118C61.1086 64.1448 61.0689 64.3806 60.9676 64.5919C60.8662 64.8033 60.7073 64.9816 60.5093 65.1063C60.3112 65.231 60.082 65.297 59.8482 65.2967H26.6988C26.4649 65.297 26.2357 65.231 26.0377 65.1063C25.8396 64.9816 25.6807 64.8033 25.5794 64.5919C25.478 64.3806 25.4383 64.1448 25.4648 63.9118C25.4913 63.6788 25.583 63.4581 25.7292 63.2751Z" fill="white"/>
</svg>
