<svg width="116" height="145" viewBox="0 0 116 145" fill="none" xmlns="http://www.w3.org/2000/svg">
<path d="M70.6087 41.8007C67.1763 41.8007 63.7326 41.8007 60.3002 41.8007C55.6896 41.8007 51.0791 41.8007 46.4685 41.8007C46.106 41.8007 45.7548 41.8007 45.3923 41.8007H45.381C45.347 41.8007 45.2564 41.8007 45.2224 41.8007C45.1658 41.8007 45.1205 41.8007 45.0638 41.7894C44.8599 41.7668 44.8599 41.7668 45.0525 41.7894C45.0978 41.8007 45.1544 41.8007 45.1998 41.8121C45.0978 41.7894 44.9959 41.7781 44.9052 41.7441C44.8033 41.7214 44.7127 41.6875 44.6107 41.6648C44.2709 41.5742 44.7466 41.7214 44.7353 41.7328C44.7013 41.7554 44.3615 41.5515 44.3388 41.5289C44.2482 41.4835 44.1689 41.4269 44.0896 41.3703C43.7044 41.1437 44.2142 41.4496 44.1916 41.4609C44.1349 41.4949 43.7044 40.9964 43.6591 40.9511C43.4099 40.7019 43.7724 41.0531 43.7384 41.0644C43.7271 41.0644 43.5912 40.8492 43.5798 40.8152C43.5232 40.7359 43.4779 40.6453 43.4326 40.5546C43.172 40.0562 43.3873 40.5546 43.4212 40.5546C43.3873 40.5546 43.2173 39.8296 43.2287 39.8183C43.2513 39.807 43.2627 40.4187 43.2513 39.9656C43.2513 39.8636 43.24 39.7617 43.24 39.6484C43.24 39.6257 43.24 39.6031 43.24 39.5918C43.24 39.4445 43.24 39.2972 43.24 39.15C43.24 38.5043 43.24 37.8472 43.24 37.2015C43.24 32.2171 43.24 27.2214 43.24 22.2371C43.24 20.164 43.24 18.0796 43.24 16.0066C43.24 15.5195 43.24 15.0437 43.24 14.5566C43.24 14.5226 43.24 14.4886 43.24 14.4433C43.24 14.432 43.24 14.432 43.24 14.4207C43.24 14.364 43.24 14.4093 43.24 14.2621C43.24 14.1828 43.2513 14.1035 43.2513 14.0242C43.2627 13.8429 43.2627 13.9222 43.2173 14.2394C43.2853 14.1148 43.3759 13.7183 43.3873 13.5824C43.4099 13.3105 43.172 13.9449 43.3306 13.707C43.3986 13.605 43.4439 13.4804 43.5005 13.3785C43.5459 13.2878 43.6025 13.2086 43.6591 13.1293C43.8857 12.7441 43.5798 13.2539 43.5685 13.2312C43.5345 13.1632 44.0216 12.7554 44.0783 12.6988C44.4068 12.3703 43.7611 12.8461 44.033 12.7328C44.1349 12.6875 44.2482 12.5968 44.3502 12.5402C44.4408 12.4949 44.5314 12.4496 44.6107 12.4043C44.9279 12.2343 44.4861 12.4836 44.4861 12.4609C44.4861 12.4156 45.1091 12.291 45.1431 12.2796C45.449 12.189 44.5654 12.291 45.0752 12.291C45.1771 12.291 45.2904 12.2796 45.3923 12.2796C45.4716 12.2796 45.5509 12.2796 45.6302 12.2796C46.1627 12.2796 46.7064 12.2796 47.2388 12.2796C49.4025 12.2796 51.5662 12.2796 53.7298 12.2796C58.6462 12.2796 63.5627 12.2796 68.4791 12.2796C69.0794 12.2796 69.6798 12.2796 70.2802 12.2796C70.3935 12.2796 70.4955 12.2796 70.6087 12.2796H70.6201C70.7673 12.2796 70.7447 12.2796 70.858 12.291C71.3451 12.3136 70.79 12.2683 70.79 12.2683C70.8013 12.2343 71.3111 12.4043 71.3791 12.4156C71.8548 12.5289 71.0619 12.223 71.3224 12.3816C71.4244 12.4382 71.549 12.4949 71.6509 12.5515C71.7529 12.6082 71.8548 12.7101 71.9681 12.7441C72.2287 12.8461 71.583 12.3816 71.9228 12.7101C72.0587 12.8461 72.206 12.982 72.3419 13.1293C72.6478 13.4464 72.24 13.0273 72.2627 13.016C72.2853 13.0046 72.4439 13.2878 72.4666 13.3218C72.5345 13.4238 72.5798 13.5371 72.6478 13.6503C72.8404 13.9902 72.6025 13.3445 72.6251 13.5937C72.6365 13.7296 72.7271 14.1261 72.7951 14.2507C72.6365 13.9675 72.7724 13.8543 72.7724 14.1035C72.7724 13.8203 72.7837 14.7039 72.7837 14.4207C72.7837 14.4433 72.7837 14.466 72.7837 14.4886C72.7837 14.9078 72.7837 15.3269 72.7837 15.746C72.7837 20.4585 72.7837 25.1824 72.7837 29.8949C72.7837 32.2285 72.7837 34.5507 72.7837 36.8843C72.7837 37.5867 72.7837 38.3003 72.7837 39.0027C72.7837 39.1726 72.7837 39.3425 72.7837 39.5238C72.7837 39.5578 72.7837 39.6031 72.7837 39.6371V39.6484C72.7837 39.773 72.7837 39.7843 72.7724 39.8863C72.7498 40.4074 72.7951 39.8183 72.7951 39.8183C72.8064 39.8183 72.6365 40.5546 72.6025 40.5546C72.5798 40.5546 72.863 40.0335 72.6591 40.43C72.6138 40.5207 72.5685 40.6113 72.5232 40.6906C72.4779 40.7812 72.4212 40.8605 72.3646 40.9398C72.138 41.3476 72.6252 40.7132 72.4099 40.8945C72.2513 41.0304 72.0927 41.223 71.9455 41.3703C71.6283 41.6761 72.0474 41.2683 72.0587 41.291C72.0587 41.3023 71.8435 41.4382 71.8095 41.4496C71.7076 41.5175 71.5943 41.5742 71.481 41.6308C71.0732 41.8687 71.5377 41.6082 71.5377 41.6082C71.5377 41.6535 71.0279 41.7554 70.9599 41.7781C70.5181 41.9027 71.1185 41.7441 71.1072 41.7668C71.0619 41.8121 70.6541 41.8007 70.6087 41.8007C69.4193 41.8234 68.2865 42.8316 68.3431 44.0664C68.3998 45.2785 69.34 46.3546 70.6087 46.332C73.1009 46.2867 75.5478 44.882 76.6013 42.571C77.0884 41.5175 77.2923 40.43 77.2923 39.2746C77.2923 37.632 77.2923 35.9781 77.2923 34.3355C77.2923 29.0339 77.2923 23.7324 77.2923 18.4195C77.2923 17.1054 77.3037 15.78 77.2923 14.466C77.247 10.6937 74.2224 7.74839 70.4728 7.72574C66.372 7.71441 62.2712 7.72574 58.1705 7.72574C53.9791 7.72574 49.7877 7.71441 45.5962 7.72574C41.8353 7.73707 38.7541 10.6257 38.6974 14.4207C38.6861 15.6554 38.6974 16.8789 38.6974 18.1136C38.6974 23.3925 38.6974 28.6601 38.6974 33.939C38.6974 35.6722 38.6974 37.4054 38.6974 39.1386C38.6974 39.9656 38.7314 40.7925 38.9919 41.5855C39.8416 44.1796 42.0619 45.9468 44.758 46.264C45.9361 46.4 47.1595 46.3093 48.3377 46.3093C50.7845 46.3093 53.2427 46.3093 55.6896 46.3093C60.3795 46.3093 65.0693 46.3093 69.7478 46.3093C70.031 46.3093 70.3142 46.3093 70.5974 46.3093C71.7869 46.3093 72.9197 45.2671 72.863 44.0437C72.8291 42.8429 71.8775 41.8007 70.6087 41.8007Z" fill="white"/>
<path d="M39.7279 103.72C36.2955 103.72 32.8517 103.72 29.4193 103.72C24.8087 103.72 20.1982 103.72 15.5877 103.72C15.2252 103.72 14.874 103.72 14.5115 103.72H14.5002C14.4662 103.72 14.3755 103.72 14.3416 103.72C14.2849 103.72 14.2396 103.72 14.183 103.709C13.9791 103.686 13.9791 103.686 14.1716 103.709C14.2169 103.72 14.2736 103.72 14.3189 103.731C14.2169 103.709 14.115 103.698 14.0244 103.664C13.9224 103.641 13.8318 103.607 13.7298 103.584C13.39 103.494 13.8658 103.641 13.8544 103.652C13.8205 103.675 13.4806 103.471 13.458 103.448C13.3673 103.403 13.288 103.346 13.2087 103.29C12.8236 103.063 13.3334 103.369 13.3107 103.38C13.2541 103.414 12.8236 102.916 12.7783 102.871C12.5291 102.621 12.8916 102.973 12.8576 102.984C12.8462 102.984 12.7103 102.769 12.699 102.735C12.6423 102.655 12.597 102.565 12.5517 102.474C12.2912 101.976 12.5064 102.474 12.5404 102.474C12.5064 102.474 12.3365 101.749 12.3478 101.738C12.3705 101.726 12.3818 102.338 12.3705 101.885C12.3705 101.783 12.3591 101.681 12.3591 101.568C12.3591 101.545 12.3591 101.523 12.3591 101.511C12.3591 101.364 12.3591 101.217 12.3591 101.069C12.3591 100.424 12.3591 99.7667 12.3591 99.121C12.3591 94.1366 12.3591 89.1409 12.3591 84.1565C12.3591 82.0835 12.3591 79.9991 12.3591 77.926C12.3591 77.4389 12.3591 76.9631 12.3591 76.476C12.3591 76.442 12.3591 76.4081 12.3591 76.3627C12.3591 76.3514 12.3591 76.3514 12.3591 76.3401C12.3591 76.2835 12.3591 76.3288 12.3591 76.1815C12.3591 76.1022 12.3705 76.0229 12.3705 75.9436C12.3818 75.7624 12.3818 75.8417 12.3365 76.1588C12.4044 76.0342 12.4951 75.6378 12.5064 75.5018C12.5291 75.2299 12.2912 75.8643 12.4498 75.6264C12.5177 75.5245 12.563 75.3999 12.6197 75.2979C12.665 75.2073 12.7216 75.128 12.7783 75.0487C13.0048 74.6635 12.699 75.1733 12.6877 75.1506C12.6537 75.0827 13.1408 74.6749 13.1974 74.6182C13.5259 74.2897 12.8802 74.7655 13.1521 74.6522C13.2541 74.6069 13.3673 74.5163 13.4693 74.4596C13.5599 74.4143 13.6505 74.369 13.7298 74.3237C14.047 74.1538 13.6052 74.403 13.6052 74.3803C13.6052 74.335 14.2283 74.2104 14.2623 74.1991C14.5681 74.1085 13.6845 74.2104 14.1943 74.2104C14.2962 74.2104 14.4095 74.1991 14.5115 74.1991C14.5908 74.1991 14.6701 74.1991 14.7494 74.1991C15.2818 74.1991 15.8255 74.1991 16.358 74.1991C18.5216 74.1991 20.6853 74.1991 22.849 74.1991C27.7654 74.1991 32.6818 74.1991 37.5982 74.1991C38.1986 74.1991 38.799 74.1991 39.3994 74.1991C39.5127 74.1991 39.6146 74.1991 39.7279 74.1991H39.7392C39.8865 74.1991 39.8638 74.1991 39.9771 74.2104C40.4642 74.2331 39.9091 74.1878 39.9091 74.1878C39.9205 74.1538 40.4302 74.3237 40.4982 74.335C40.974 74.4483 40.181 74.1424 40.4416 74.301C40.5435 74.3577 40.6681 74.4143 40.7701 74.471C40.872 74.5276 40.974 74.6295 41.0873 74.6635C41.3478 74.7655 40.7021 74.301 41.0419 74.6295C41.1779 74.7655 41.3252 74.9014 41.4611 75.0487C41.7669 75.3659 41.3591 74.9467 41.3818 74.9354C41.4044 74.9241 41.563 75.2073 41.5857 75.2413C41.6537 75.3432 41.699 75.4565 41.767 75.5698C41.9595 75.9096 41.7216 75.2639 41.7443 75.5131C41.7556 75.6491 41.8462 76.0456 41.9142 76.1702C41.7556 75.887 41.8916 75.7737 41.8916 76.0229C41.8916 75.7397 41.9029 76.6233 41.9029 76.3401C41.9029 76.3628 41.9029 76.3854 41.9029 76.4081C41.9029 76.8272 41.9029 77.2463 41.9029 77.6655C41.9029 82.378 41.9029 87.1018 41.9029 91.8143C41.9029 94.1479 41.9029 96.4702 41.9029 98.8038C41.9029 99.5061 41.9029 100.22 41.9029 100.922C41.9029 101.092 41.9029 101.262 41.9029 101.443C41.9029 101.477 41.9029 101.523 41.9029 101.556V101.568C41.9029 101.692 41.9029 101.704 41.8916 101.806C41.8689 102.327 41.9142 101.738 41.9142 101.738C41.9255 101.738 41.7556 102.474 41.7216 102.474C41.699 102.474 41.9822 101.953 41.7783 102.349C41.733 102.44 41.6877 102.531 41.6423 102.61C41.597 102.701 41.5404 102.78 41.4837 102.859C41.2572 103.267 41.7443 102.633 41.5291 102.814C41.3705 102.95 41.2119 103.142 41.0646 103.29C40.7474 103.596 41.1666 103.188 41.1779 103.21C41.1779 103.222 40.9627 103.358 40.9287 103.369C40.8267 103.437 40.7134 103.494 40.6002 103.55C40.1923 103.788 40.6568 103.528 40.6568 103.528C40.6568 103.573 40.147 103.675 40.0791 103.698C39.6373 103.822 40.2377 103.664 40.2263 103.686C40.181 103.743 39.7619 103.72 39.7279 103.72C38.5384 103.743 37.4056 104.751 37.4623 105.986C37.5189 107.198 38.4591 108.274 39.7279 108.251C42.2201 108.206 44.667 106.801 45.7205 104.49C46.2076 103.437 46.4115 102.349 46.4115 101.194C46.4115 99.5514 46.4115 97.8975 46.4115 96.2549C46.4115 90.9534 46.4115 85.6518 46.4115 80.3389C46.4115 79.0249 46.4228 77.6995 46.4115 76.3854C46.3662 72.6131 43.3416 69.6678 39.5919 69.6452C35.4912 69.6338 31.3904 69.6452 27.2896 69.6452C23.0982 69.6452 18.9068 69.6338 14.7154 69.6452C10.9544 69.6678 7.86187 72.5565 7.81656 76.3627C7.80523 77.5975 7.81656 78.821 7.81656 80.0557C7.81656 85.3346 7.81656 90.6022 7.81656 95.8811C7.81656 97.6143 7.81656 99.3475 7.81656 101.081C7.81656 101.908 7.85054 102.735 8.11109 103.528C8.9607 106.122 11.181 107.889 13.8771 108.206C15.0552 108.342 16.2787 108.251 17.4568 108.251C19.9037 108.251 22.3619 108.251 24.8087 108.251C29.4986 108.251 34.1884 108.251 38.867 108.251C39.1502 108.251 39.4334 108.251 39.7166 108.251C40.906 108.251 42.0388 107.209 41.9822 105.986C41.9369 104.762 40.9966 103.72 39.7279 103.72Z" fill="white"/>
<path d="M101.5 103.72C98.0679 103.72 94.6242 103.72 91.1918 103.72C86.5812 103.72 81.9707 103.72 77.3601 103.72C76.9976 103.72 76.6464 103.72 76.2839 103.72H76.2726C76.2386 103.72 76.148 103.72 76.114 103.72C76.0574 103.72 76.0121 103.72 75.9554 103.709C75.7515 103.686 75.7515 103.686 75.9441 103.709C75.9894 103.72 76.0461 103.72 76.0914 103.732C75.9894 103.709 75.8875 103.698 75.7968 103.664C75.6949 103.641 75.6043 103.607 75.5023 103.584C75.1625 103.494 75.6382 103.641 75.6269 103.652C75.5929 103.675 75.2531 103.471 75.2304 103.448C75.1398 103.403 75.0605 103.346 74.9812 103.29C74.5961 103.063 75.1058 103.369 75.0832 103.38C75.0265 103.414 74.596 102.916 74.5507 102.871C74.3015 102.621 74.664 102.973 74.63 102.984C74.6187 102.984 74.4828 102.769 74.4714 102.735C74.4148 102.655 74.3695 102.565 74.3242 102.474C74.0636 101.976 74.2789 102.474 74.3128 102.474C74.2789 102.474 74.1089 101.749 74.1203 101.738C74.1429 101.726 74.1543 102.338 74.1429 101.885C74.1429 101.783 74.1316 101.681 74.1316 101.568C74.1316 101.545 74.1316 101.523 74.1316 101.511C74.1316 101.364 74.1316 101.217 74.1316 101.069C74.1316 100.424 74.1316 99.7667 74.1316 99.121C74.1316 94.1366 74.1316 89.1409 74.1316 84.1565C74.1316 82.0835 74.1316 79.9991 74.1316 77.926C74.1316 77.4389 74.1316 76.9631 74.1316 76.476C74.1316 76.442 74.1316 76.4081 74.1316 76.3627C74.1316 76.3514 74.1316 76.3514 74.1316 76.3401C74.1316 76.2835 74.1316 76.3288 74.1316 76.1815C74.1316 76.1022 74.1429 76.0229 74.1429 75.9436C74.1543 75.7624 74.1543 75.8417 74.1089 76.1588C74.1769 76.0342 74.2675 75.6378 74.2789 75.5018C74.3015 75.2299 74.0636 75.8643 74.2222 75.6264C74.2902 75.5245 74.3355 75.3999 74.3921 75.2979C74.4375 75.2073 74.4941 75.128 74.5507 75.0487C74.7773 74.6635 74.4714 75.1733 74.4601 75.1506C74.4261 75.0827 74.9132 74.6749 74.9699 74.6182C75.2984 74.2897 74.6527 74.7655 74.9246 74.6522C75.0265 74.6069 75.1398 74.5163 75.2418 74.4596C75.3324 74.4143 75.423 74.369 75.5023 74.3237C75.8195 74.1538 75.3777 74.403 75.3777 74.3803C75.3777 74.335 76.0007 74.2104 76.0347 74.1991C76.3406 74.1085 75.457 74.2104 75.9668 74.2104C76.0687 74.2104 76.182 74.1991 76.2839 74.1991C76.3632 74.1991 76.4425 74.1991 76.5218 74.1991C77.0543 74.1991 77.598 74.1991 78.1304 74.1991C80.2941 74.1991 82.4578 74.1991 84.6214 74.1991C89.5379 74.1991 94.4543 74.1991 99.3707 74.1991C99.9711 74.1991 100.571 74.1991 101.172 74.1991C101.285 74.1991 101.387 74.1991 101.5 74.1991H101.512C101.659 74.1991 101.636 74.1991 101.75 74.2104C102.237 74.2331 101.682 74.1878 101.682 74.1878C101.693 74.1538 102.203 74.3237 102.271 74.335C102.746 74.4483 101.953 74.1424 102.214 74.301C102.316 74.3577 102.441 74.4143 102.543 74.471C102.644 74.5276 102.746 74.6295 102.86 74.6635C103.12 74.7655 102.475 74.301 102.814 74.6295C102.95 74.7655 103.098 74.9014 103.234 75.0487C103.539 75.3659 103.132 74.9467 103.154 74.9354C103.177 74.9241 103.336 75.2073 103.358 75.2413C103.426 75.3432 103.471 75.4565 103.539 75.5698C103.732 75.9096 103.494 75.2639 103.517 75.5131C103.528 75.6491 103.619 76.0456 103.687 76.1702C103.528 75.887 103.664 75.7737 103.664 76.0229C103.664 75.7397 103.675 76.6233 103.675 76.3401C103.675 76.3628 103.675 76.3854 103.675 76.4081C103.675 76.8272 103.675 77.2463 103.675 77.6655C103.675 82.378 103.675 87.1018 103.675 91.8143C103.675 94.1479 103.675 96.4702 103.675 98.8038C103.675 99.5061 103.675 100.22 103.675 100.922C103.675 101.092 103.675 101.262 103.675 101.443C103.675 101.477 103.675 101.523 103.675 101.556V101.568C103.675 101.692 103.675 101.704 103.664 101.806C103.641 102.327 103.687 101.738 103.687 101.738C103.698 101.738 103.528 102.474 103.494 102.474C103.471 102.474 103.755 101.953 103.551 102.349C103.505 102.44 103.46 102.531 103.415 102.61C103.369 102.701 103.313 102.78 103.256 102.859C103.03 103.267 103.517 102.633 103.302 102.814C103.143 102.95 102.984 103.142 102.837 103.29C102.52 103.596 102.939 103.188 102.95 103.21C102.95 103.222 102.735 103.358 102.701 103.369C102.599 103.437 102.486 103.494 102.373 103.55C101.965 103.788 102.429 103.528 102.429 103.528C102.429 103.573 101.919 103.675 101.852 103.698C101.41 103.822 102.01 103.664 101.999 103.686C101.953 103.743 101.546 103.72 101.5 103.72C100.311 103.743 99.1781 104.751 99.2347 105.986C99.2914 107.198 100.232 108.274 101.5 108.251C103.993 108.206 106.439 106.801 107.493 104.49C107.98 103.437 108.184 102.349 108.184 101.194C108.184 99.5514 108.184 97.8975 108.184 96.2549C108.184 90.9534 108.184 85.6518 108.184 80.3389C108.184 79.0249 108.195 77.6995 108.184 76.3854C108.139 72.6131 105.114 69.6678 101.364 69.6452C97.2636 69.6338 93.1629 69.6452 89.0621 69.6452C84.8707 69.6452 80.6793 69.6338 76.4879 69.6452C72.7269 69.6565 69.6457 72.5452 69.589 76.3401C69.5777 77.5749 69.589 78.7983 69.589 80.0331C69.589 85.312 69.589 90.5795 69.589 95.8585C69.589 97.5917 69.589 99.3249 69.589 101.058C69.589 101.885 69.623 102.712 69.8836 103.505C70.7332 106.099 72.9535 107.866 75.6496 108.183C76.8277 108.319 78.0511 108.229 79.2293 108.229C81.6761 108.229 84.1343 108.229 86.5812 108.229C91.2711 108.229 95.9609 108.229 100.639 108.229C100.923 108.229 101.206 108.229 101.489 108.229C102.678 108.229 103.811 107.187 103.755 105.963C103.709 104.762 102.769 103.72 101.5 103.72Z" fill="white"/>
<path d="M29.4644 71.9336C29.4644 68.9997 29.4644 66.0544 29.4644 63.1204C29.4644 62.5313 29.4644 61.9422 29.4644 61.3645C29.4644 61.2739 29.4644 61.1719 29.4644 61.0813C29.4644 60.9454 29.4757 60.8208 29.4871 60.6848C29.4871 60.4356 29.4644 60.8887 29.4531 60.9001C29.4871 60.8547 29.4871 60.7301 29.4984 60.6735C29.5324 60.5262 29.6003 60.379 29.623 60.243C29.6683 59.9825 29.555 60.4696 29.5324 60.4356C29.5211 60.4129 29.6457 60.1977 29.6683 60.1637C29.7476 60.0165 29.8609 59.8692 29.9402 59.7219C30.0535 59.4954 29.8269 59.9145 29.8043 59.8805C29.7929 59.8692 29.9402 59.7219 29.9515 59.7106C30.0535 59.6086 30.1554 59.4954 30.2687 59.3934C30.28 59.3821 30.4273 59.2461 30.4386 59.2461C30.4273 59.2348 29.9855 59.5407 30.4046 59.2915C30.5293 59.2122 30.6652 59.1442 30.7898 59.0649C30.8125 59.0536 30.9824 58.9629 30.9937 58.9629C31.0277 58.9856 30.5406 59.0989 30.8011 59.0536C30.9484 59.0309 31.0957 58.9629 31.2316 58.929C31.2882 58.9176 31.4128 58.9176 31.4582 58.8836C31.3222 58.9856 30.9824 58.929 31.3902 58.9063C31.5375 58.895 31.6734 58.895 31.8207 58.895C33.3273 58.895 34.8226 58.895 36.3293 58.895C39.3086 58.895 42.2878 58.895 45.2671 58.895C49.0507 58.895 52.823 58.895 56.6066 58.895C60.4582 58.895 64.2984 58.895 68.15 58.895C71.3898 58.895 74.6183 58.895 77.8582 58.895C79.7839 58.895 81.7097 58.895 83.6468 58.895C84.032 58.895 84.4171 58.9063 84.8136 58.9176C85.0628 58.9176 84.6097 58.895 84.5984 58.8836C84.6437 58.9176 84.7683 58.9176 84.825 58.929C84.9722 58.9629 85.1195 59.0309 85.2554 59.0536C85.516 59.0989 85.0289 58.9856 85.0628 58.9629C85.0742 58.9516 85.2441 59.0536 85.2668 59.0649C85.4367 59.1555 85.6066 59.2801 85.7765 59.3708C86.0031 59.484 85.5839 59.2575 85.6179 59.2348C85.6292 59.2235 85.7765 59.3708 85.7878 59.3821C85.8898 59.484 86.0031 59.586 86.105 59.6993C86.1164 59.7106 86.2523 59.8579 86.2523 59.8692C86.2296 59.9145 86.0257 59.4614 86.1164 59.7106C86.1843 59.8805 86.3316 60.0504 86.4222 60.2204C86.4336 60.243 86.5242 60.4129 86.5242 60.4243C86.5015 60.4583 86.3882 59.9711 86.4335 60.2317C86.4562 60.379 86.5242 60.5262 86.5582 60.6622C86.5695 60.7188 86.5695 60.8434 86.6035 60.8887C86.5921 60.8774 86.5695 60.4243 86.5695 60.6735C86.5695 60.8094 86.5808 60.934 86.5921 61.07C86.5921 61.1719 86.5921 61.2739 86.5921 61.3758C86.5921 64.593 86.5921 67.8102 86.5921 71.0274C86.5921 71.3333 86.5921 71.6278 86.5921 71.9336C86.5921 73.1231 87.6343 74.2559 88.8578 74.1993C90.0812 74.1426 91.1234 73.2024 91.1234 71.9336C91.1234 68.9204 91.1234 65.9071 91.1234 62.8938C91.1234 61.1379 91.1574 59.484 90.3078 57.8754C89.1523 55.6891 86.7847 54.3977 84.3492 54.3864C82.9218 54.3751 81.5058 54.3864 80.0785 54.3864C77.0765 54.3864 74.0632 54.3864 71.0613 54.3864C67.221 54.3864 63.3695 54.3864 59.5293 54.3864C55.5984 54.3864 51.6562 54.3864 47.7253 54.3864C44.4402 54.3864 41.1664 54.3864 37.8812 54.3864C36.0007 54.3864 34.1203 54.3864 32.2511 54.3864C31.3902 54.3864 30.5406 54.4204 29.7136 54.6809C26.8363 55.6211 25.0011 58.2606 25.0011 61.2626C24.9898 64.5024 25.0011 67.7536 25.0011 70.9934C25.0011 71.2993 25.0011 71.6165 25.0011 71.9223C25.0011 73.1118 26.0433 74.2446 27.2668 74.1879C28.4336 74.1426 29.4644 73.2024 29.4644 71.9336Z" fill="white"/>
<path d="M55.7344 44.0662C55.7344 47.7366 55.7344 51.3955 55.7344 55.0659C55.7344 55.587 55.7344 56.1194 55.7344 56.6405C55.7344 57.8299 56.7766 58.9627 58 58.9061C59.2234 58.8494 60.2656 57.9092 60.2656 56.6405C60.2656 52.9702 60.2656 49.3112 60.2656 45.6409C60.2656 45.1198 60.2656 44.5873 60.2656 44.0662C60.2656 42.8768 59.2234 41.744 58 41.8006C56.7766 41.8573 55.7344 42.7975 55.7344 44.0662Z" fill="white"/>
</svg>
