<svg  width="72" height="95" viewBox="0 0 153 191" fill="none" xmlns="http://www.w3.org/2000/svg">
<path d="M134.64 59.5921H108.63V48.8961C108.63 47.8876 108.131 46.9433 107.297 46.3734L78.2272 26.5094C77.1868 25.7973 75.8128 25.7973 74.7724 26.5094L45.7024 46.3734C44.8686 46.9433 44.3698 47.8876 44.3698 48.8961V59.5921H18.3598C16.6692 59.5921 15.2998 60.9597 15.2998 62.6481V70.2881C15.2998 71.4188 15.9149 72.4074 16.8298 72.9346V123.768C16.8298 125.457 18.1992 126.824 19.8898 126.824H133.11C134.8 126.824 136.17 125.457 136.17 123.768V72.9346C137.085 72.4059 137.7 71.4188 137.7 70.2881V62.6481C137.7 60.9597 136.33 59.5921 134.64 59.5921ZM21.4198 102.376H47.4298V122.24H21.4198V102.376ZM98.9204 47.3681L89.1743 40.6541C88.8255 40.4126 88.3497 40.4982 88.111 40.8481C87.8708 41.1965 87.9564 41.6717 88.3053 41.9101L96.2292 47.3681H56.7705L76.4998 33.7796L79.1253 35.5888C79.4711 35.8241 79.9469 35.7416 80.1902 35.3932C80.4288 35.0448 80.3432 34.5696 79.9943 34.3297L76.9343 32.2226C76.6712 32.0438 76.3284 32.0423 76.0653 32.2241L54.0777 47.3681H52.3763L76.4998 30.884L100.625 47.3681H98.9204ZM104.04 50.4241V51.9521H48.9598V50.4241H104.04ZM133.11 65.7041H105.57V64.1761H133.11V65.7041ZM48.9598 58.0641V56.5361H104.04V58.0641H48.9598ZM90.2698 122.24V100.848H94.8598V122.24H90.2698ZM79.5598 105.432V120.712H73.4398V105.432H79.5598ZM70.3798 122.24H68.8498V103.904H70.3798V122.24ZM82.6198 103.904H84.1498V122.24H82.6198V103.904ZM84.9148 102.376H81.0898H71.9098H68.0848C67.6625 102.376 67.3198 102.72 67.3198 103.14V122.24H65.7898V100.848H87.2098V122.24H85.6798V103.14C85.6798 102.72 85.3356 102.376 84.9148 102.376ZM52.7848 79.4561C52.3625 79.4561 52.0198 79.7999 52.0198 80.2201V122.24H50.4898V70.2881V62.6481V61.1201H52.0198V66.4681C52.0198 66.8898 52.3625 67.2321 52.7848 67.2321C53.2071 67.2321 53.5498 66.8898 53.5498 66.4681V61.1201H55.0798V122.24H53.5498V80.2201C53.5498 79.7999 53.2071 79.4561 52.7848 79.4561ZM47.4298 96.2641H21.4198V94.7361H47.4298V96.2641ZM19.8898 67.2321H47.4298V68.7601H19.8898V67.2321ZM104.04 55.0081H48.9598V53.4801H104.04V55.0081ZM94.8598 94.7361H77.2648C76.8425 94.7361 76.4998 95.0799 76.4998 95.5001C76.4998 95.9203 76.8425 96.2641 77.2648 96.2641H94.8598V97.7921H58.1398V96.2641H63.4948C63.9171 96.2641 64.2598 95.9203 64.2598 95.5001C64.2598 95.0799 63.9171 94.7361 63.4948 94.7361H58.1398V93.2081H94.8598V94.7361ZM58.1398 100.848H62.7298V122.24H58.1398V100.848ZM94.8598 90.1521H58.1398V61.1201H94.8598V90.1521ZM47.4298 65.7041H19.8898V64.1761H47.4298V65.7041ZM47.4298 71.8161V91.6801H21.4198V71.8161H47.4298ZM21.4198 97.7921H47.4298V99.3201H21.4198V97.7921ZM100.215 116.128C99.7941 116.128 99.4498 116.472 99.4498 116.892V122.24H97.9198V61.1201H99.4498V98.5561C99.4498 98.9763 99.7941 99.3201 100.215 99.3201C100.636 99.3201 100.98 98.9763 100.98 98.5561V61.1201H102.51V62.6481V70.2881V122.24H100.98V116.892C100.98 116.472 100.636 116.128 100.215 116.128ZM105.57 97.7921H131.58V99.3201H105.57V97.7921ZM131.58 96.2641H105.57V94.7361H131.58V96.2641ZM105.57 102.376H131.58V122.24H105.57V102.376ZM131.58 91.6801H105.57V71.8161H131.58V91.6801ZM105.57 68.7601V67.2321H133.11V68.7601H105.57ZM76.9404 35.2847L89.9454 44.4527C90.2193 44.6437 90.3341 44.9905 90.2331 45.3084C90.1321 45.6262 89.8383 45.8401 89.5048 45.8401H74.2048C73.7825 45.8401 73.4398 45.4978 73.4398 45.0761C73.4398 44.6544 73.7825 44.3121 74.2048 44.3121H87.0951L76.4998 36.8432L65.9046 44.3121H69.6148C70.0371 44.3121 70.3798 44.6544 70.3798 45.0761C70.3798 45.4978 70.0371 45.8401 69.6148 45.8401H63.4948C63.1613 45.8401 62.866 45.6247 62.765 45.3068C62.664 44.989 62.7803 44.6422 63.0526 44.4512L76.0576 35.2832C76.3223 35.0967 76.6773 35.0967 76.9404 35.2847ZM82.1853 37.6974C81.8364 37.4575 81.7508 36.9808 81.9894 36.6339C82.2312 36.284 82.707 36.2 83.0543 36.4383L86.1143 38.5454C86.4632 38.7853 86.5488 39.2621 86.3102 39.6089C86.0684 39.9588 85.5911 40.0444 85.2453 39.8045L82.1853 37.6974ZM100.98 107.724C100.98 108.144 100.636 108.488 100.215 108.488C99.7941 108.488 99.4498 108.144 99.4498 107.724V103.14C99.4498 102.72 99.7941 102.376 100.215 102.376C100.636 102.376 100.98 102.72 100.98 103.14V107.724ZM53.5498 75.6361C53.5498 76.0578 53.2071 76.4001 52.7848 76.4001C52.3625 76.4001 52.0198 76.0578 52.0198 75.6361V71.0521C52.0198 70.6304 52.3625 70.2881 52.7848 70.2881C53.2071 70.2881 53.5498 70.6304 53.5498 71.0521V75.6361ZM67.3198 95.5001C67.3198 95.0799 67.6625 94.7361 68.0848 94.7361H72.6748C73.0971 94.7361 73.4398 95.0799 73.4398 95.5001C73.4398 95.9203 73.0971 96.2641 72.6748 96.2641H68.0848C67.6625 96.2641 67.3198 95.9203 67.3198 95.5001ZM70.3798 87.0961H82.6198C83.4659 87.0961 84.1498 86.4131 84.1498 85.5681V65.7041C84.1498 64.8591 83.4659 64.1761 82.6198 64.1761H70.3798C69.5337 64.1761 68.8498 64.8591 68.8498 65.7041V85.5681C68.8498 86.4131 69.5337 87.0961 70.3798 87.0961ZM81.0898 77.9281H78.0298V73.3441H81.0898V77.9281ZM74.9698 77.9281H71.9098V73.3441H74.9698V77.9281ZM71.9098 79.4561H74.9698V84.0401H71.9098V79.4561ZM78.0298 84.0401V79.4561H81.0898V84.0401H78.0298ZM81.0898 71.8161H78.0298V67.2321H81.0898V71.8161ZM74.9698 67.2321V71.8161H71.9098V67.2321H74.9698ZM87.2098 87.0961H91.7998C92.6459 87.0961 93.3298 86.4131 93.3298 85.5681V65.7041C93.3298 64.8591 92.6459 64.1761 91.7998 64.1761H87.2098C86.3637 64.1761 85.6798 64.8591 85.6798 65.7041V85.5681C85.6798 86.4131 86.3637 87.0961 87.2098 87.0961ZM88.7398 67.2321H90.2698V84.0401H88.7398V67.2321ZM61.1998 87.0961H65.7898C66.6359 87.0961 67.3198 86.4131 67.3198 85.5681V65.7041C67.3198 64.8591 66.6359 64.1761 65.7898 64.1761H61.1998C60.3537 64.1761 59.6698 64.8591 59.6698 65.7041V85.5681C59.6698 86.4131 60.3537 87.0961 61.1998 87.0961ZM62.7298 67.2321H64.2598V84.0401H62.7298V67.2321ZM108.63 90.1521H116.28C117.126 90.1521 117.81 89.4691 117.81 88.6241V74.8721C117.81 74.0271 117.126 73.3441 116.28 73.3441H108.63C107.784 73.3441 107.1 74.0271 107.1 74.8721V88.6241C107.1 89.4691 107.784 90.1521 108.63 90.1521ZM110.16 82.5121H111.69V87.0961H110.16V82.5121ZM113.22 87.0961V82.5121H114.75V87.0961H113.22ZM114.75 80.9841H113.22V76.4001H114.75V80.9841ZM111.69 76.4001V80.9841H110.16V76.4001H111.69ZM120.87 90.1521H128.52C129.366 90.1521 130.05 89.4691 130.05 88.6241V74.8721C130.05 74.0271 129.366 73.3441 128.52 73.3441H120.87C120.024 73.3441 119.34 74.0271 119.34 74.8721V88.6241C119.34 89.4691 120.024 90.1521 120.87 90.1521ZM122.4 82.5121H123.93V87.0961H122.4V82.5121ZM125.46 87.0961V82.5121H126.99V87.0961H125.46ZM126.99 80.9841H125.46V76.4001H126.99V80.9841ZM123.93 76.4001V80.9841H122.4V76.4001H123.93ZM116.28 103.904H108.63C107.784 103.904 107.1 104.587 107.1 105.432V119.184C107.1 120.029 107.784 120.712 108.63 120.712H116.28C117.126 120.712 117.81 120.029 117.81 119.184V105.432C117.81 104.587 117.126 103.904 116.28 103.904ZM114.75 111.544H113.22V106.96H114.75V111.544ZM111.69 106.96V111.544H110.16V106.96H111.69ZM110.16 113.072H111.69V117.656H110.16V113.072ZM113.22 117.656V113.072H114.75V117.656H113.22ZM128.52 103.904H120.87C120.024 103.904 119.34 104.587 119.34 105.432V119.184C119.34 120.029 120.024 120.712 120.87 120.712H128.52C129.366 120.712 130.05 120.029 130.05 119.184V105.432C130.05 104.587 129.366 103.904 128.52 103.904ZM126.99 111.544H125.46V106.96H126.99V111.544ZM123.93 106.96V111.544H122.4V106.96H123.93ZM122.4 113.072H123.93V117.656H122.4V113.072ZM125.46 117.656V113.072H126.99V117.656H125.46ZM36.7198 90.1521H44.3698C45.2159 90.1521 45.8998 89.4691 45.8998 88.6241V74.8721C45.8998 74.0271 45.2159 73.3441 44.3698 73.3441H36.7198C35.8737 73.3441 35.1898 74.0271 35.1898 74.8721V88.6241C35.1898 89.4691 35.8737 90.1521 36.7198 90.1521ZM38.2498 82.5121H39.7798V87.0961H38.2498V82.5121ZM41.3098 87.0961V82.5121H42.8398V87.0961H41.3098ZM42.8398 80.9841H41.3098V76.4001H42.8398V80.9841ZM39.7798 76.4001V80.9841H38.2498V76.4001H39.7798ZM24.4798 90.1521H32.1298C32.9759 90.1521 33.6598 89.4691 33.6598 88.6241V74.8721C33.6598 74.0271 32.9759 73.3441 32.1298 73.3441H24.4798C23.6337 73.3441 22.9498 74.0271 22.9498 74.8721V88.6241C22.9498 89.4691 23.6337 90.1521 24.4798 90.1521ZM26.0098 82.5121H27.5398V87.0961H26.0098V82.5121ZM29.0698 87.0961V82.5121H30.5998V87.0961H29.0698ZM30.5998 80.9841H29.0698V76.4001H30.5998V80.9841ZM27.5398 76.4001V80.9841H26.0098V76.4001H27.5398ZM44.3698 103.904H36.7198C35.8737 103.904 35.1898 104.587 35.1898 105.432V119.184C35.1898 120.029 35.8737 120.712 36.7198 120.712H44.3698C45.2159 120.712 45.8998 120.029 45.8998 119.184V105.432C45.8998 104.587 45.2159 103.904 44.3698 103.904ZM42.8398 111.544H41.3098V106.96H42.8398V111.544ZM39.7798 106.96V111.544H38.2498V106.96H39.7798ZM38.2498 113.072H39.7798V117.656H38.2498V113.072ZM41.3098 117.656V113.072H42.8398V117.656H41.3098ZM32.1298 103.904H24.4798C23.6337 103.904 22.9498 104.587 22.9498 105.432V119.184C22.9498 120.029 23.6337 120.712 24.4798 120.712H32.1298C32.9759 120.712 33.6598 120.029 33.6598 119.184V105.432C33.6598 104.587 32.9759 103.904 32.1298 103.904ZM30.5998 111.544H29.0698V106.96H30.5998V111.544ZM27.5398 106.96V111.544H26.0098V106.96H27.5398ZM26.0098 113.072H27.5398V117.656H26.0098V113.072ZM29.0698 117.656V113.072H30.5998V117.656H29.0698Z" fill="white"/>
</svg>
